# xmcd CD database file
#
# Track frame offsets:
#	150
#	17879
#	37075
#	56804
#	74321
#	93395
#	110561
#	131937
#	148261
#	167506
#	182394
#	206553
#	223860
#	240154
#
# Disc length: 3450 seconds
#
# Revision: 1
# Processed by: cddbd v1.4PL0 Copyright (c) Steve Scherf et al.
# Submitted via: CDex 1.50beta10
#
DISCID=d20d780e
DTITLE=Fred Blondin - Mordre la poussière
DYEAR=2003
DGENRE=Blues
TTITLE0=Pour garder ton amour
TTITLE1=J'voudrais que ca change
TTITLE2=Chaque fois
TTITLE3=24 heures
TTITLE4=Donner
TTITLE5=Retiens-moi
TTITLE6=J'ai vu la mer pleurer
TTITLE7=Quelques minutes
TTITLE8=Convaincre et non pas vaincre
TTITLE9=Mordre la poussière
TTITLE10=Pour un p'tit oui
TTITLE11=Où sont nos amours ?
TTITLE12=Comme une prière
TTITLE13=Le Café du Monde
EXTD=YEAR: 2003
EXTT0=
EXTT1=
EXTT2=
EXTT3=
EXTT4=
EXTT5=
EXTT6=
EXTT7=
EXTT8=
EXTT9=
EXTT10=
EXTT11=
EXTT12=
EXTT13=
PLAYORDER=
